<svg width="1024" height="1024" viewBox="0 0 1024 1024" xmlns="http://www.w3.org/2000/svg">
  <defs>
    <!-- No external @import: browsers often block remote CSS when the SVG is used as an img src. -->
    <!-- Radial gradient for the outer ring - rich forest green -->
    <radialGradient id="outerGrad" cx="42%" cy="38%" r="62%">
      <stop offset="0%" stop-color="#2d6a4f"/>
      <stop offset="55%" stop-color="#1a472a"/>
      <stop offset="100%" stop-color="#0d2b17"/>
    </radialGradient>

    <!-- Newsprint gradient for inner circle -->
    <radialGradient id="innerpaper" cx="40%" cy="35%" r="65%">
      <stop offset="0%" stop-color="#fdfaf3"/>
      <stop offset="60%" stop-color="#f5f0e8"/>
      <stop offset="100%" stop-color="#ede6d4"/>
    </radialGradient>

    <!-- Subtle shadow for the G letterform -->
    <filter id="letterShadow" x="-5%" y="-5%" width="115%" height="115%">
      <feDropShadow dx="2" dy="3" stdDeviation="6" flood-color="#0d2b17" flood-opacity="0.28"/>
    </filter>

    <!-- Outer glow for entire badge -->
    <filter id="badgeGlow" x="-4%" y="-4%" width="108%" height="108%">
      <feDropShadow dx="0" dy="6" stdDeviation="18" flood-color="#000000" flood-opacity="0.35"/>
    </filter>

    <!-- Emboss filter for ring details -->
    <filter id="emboss">
      <feConvolveMatrix order="3" kernelMatrix="-2 -1 0 -1 1 1 0 1 2" preserveAlpha="true"/>
    </filter>

    <!-- Gold shimmer gradient for decorative lines -->
    <linearGradient id="goldLine" x1="0%" y1="0%" x2="100%" y2="0%">
      <stop offset="0%" stop-color="#1a472a" stop-opacity="0"/>
      <stop offset="20%" stop-color="#c9a84c"/>
      <stop offset="50%" stop-color="#e8c96a"/>
      <stop offset="80%" stop-color="#c9a84c"/>
      <stop offset="100%" stop-color="#1a472a" stop-opacity="0"/>
    </linearGradient>

    <!-- Gold shimmer for wave accent -->
    <linearGradient id="waveGold" x1="0%" y1="0%" x2="100%" y2="0%">
      <stop offset="0%" stop-color="#1a472a" stop-opacity="0"/>
      <stop offset="30%" stop-color="#b8973e"/>
      <stop offset="50%" stop-color="#d4af55"/>
      <stop offset="70%" stop-color="#b8973e"/>
      <stop offset="100%" stop-color="#1a472a" stop-opacity="0"/>
    </linearGradient>

    <!-- Clip path for inner circle -->
    <clipPath id="innerClip">
      <circle cx="512" cy="512" r="418"/>
    </clipPath>
  </defs>

  <!-- ── Outer badge shadow ── -->
  <circle cx="512" cy="512" r="460" fill="rgba(0,0,0,0.18)" filter="url(#badgeGlow)"/>

  <!-- ── Outermost ring – deep forest green ── -->
  <circle cx="512" cy="512" r="458" fill="url(#outerGrad)"/>

  <!-- Decorative outer tick marks (48 ticks) -->
  <g stroke="#2d6a4f" stroke-width="1.5" opacity="0.6">
    <line x1="512" y1="58" x2="512" y2="72" transform="rotate(0,512,512)"/>
    <line x1="512" y1="58" x2="512" y2="72" transform="rotate(7.5,512,512)"/>
    <line x1="512" y1="58" x2="512" y2="72" transform="rotate(15,512,512)"/>
    <line x1="512" y1="58" x2="512" y2="72" transform="rotate(22.5,512,512)"/>
    <line x1="512" y1="58" x2="512" y2="72" transform="rotate(30,512,512)"/>
    <line x1="512" y1="58" x2="512" y2="72" transform="rotate(37.5,512,512)"/>
    <line x1="512" y1="58" x2="512" y2="72" transform="rotate(45,512,512)"/>
    <line x1="512" y1="58" x2="512" y2="72" transform="rotate(52.5,512,512)"/>
    <line x1="512" y1="58" x2="512" y2="72" transform="rotate(60,512,512)"/>
    <line x1="512" y1="58" x2="512" y2="72" transform="rotate(67.5,512,512)"/>
    <line x1="512" y1="58" x2="512" y2="72" transform="rotate(75,512,512)"/>
    <line x1="512" y1="58" x2="512" y2="72" transform="rotate(82.5,512,512)"/>
    <line x1="512" y1="58" x2="512" y2="72" transform="rotate(90,512,512)"/>
    <line x1="512" y1="58" x2="512" y2="72" transform="rotate(97.5,512,512)"/>
    <line x1="512" y1="58" x2="512" y2="72" transform="rotate(105,512,512)"/>
    <line x1="512" y1="58" x2="512" y2="72" transform="rotate(112.5,512,512)"/>
    <line x1="512" y1="58" x2="512" y2="72" transform="rotate(120,512,512)"/>
    <line x1="512" y1="58" x2="512" y2="72" transform="rotate(127.5,512,512)"/>
    <line x1="512" y1="58" x2="512" y2="72" transform="rotate(135,512,512)"/>
    <line x1="512" y1="58" x2="512" y2="72" transform="rotate(142.5,512,512)"/>
    <line x1="512" y1="58" x2="512" y2="72" transform="rotate(150,512,512)"/>
    <line x1="512" y1="58" x2="512" y2="72" transform="rotate(157.5,512,512)"/>
    <line x1="512" y1="58" x2="512" y2="72" transform="rotate(165,512,512)"/>
    <line x1="512" y1="58" x2="512" y2="72" transform="rotate(172.5,512,512)"/>
    <line x1="512" y1="58" x2="512" y2="72" transform="rotate(180,512,512)"/>
    <line x1="512" y1="58" x2="512" y2="72" transform="rotate(187.5,512,512)"/>
    <line x1="512" y1="58" x2="512" y2="72" transform="rotate(195,512,512)"/>
    <line x1="512" y1="58" x2="512" y2="72" transform="rotate(202.5,512,512)"/>
    <line x1="512" y1="58" x2="512" y2="72" transform="rotate(210,512,512)"/>
    <line x1="512" y1="58" x2="512" y2="72" transform="rotate(217.5,512,512)"/>
    <line x1="512" y1="58" x2="512" y2="72" transform="rotate(225,512,512)"/>
    <line x1="512" y1="58" x2="512" y2="72" transform="rotate(232.5,512,512)"/>
    <line x1="512" y1="58" x2="512" y2="72" transform="rotate(240,512,512)"/>
    <line x1="512" y1="58" x2="512" y2="72" transform="rotate(247.5,512,512)"/>
    <line x1="512" y1="58" x2="512" y2="72" transform="rotate(255,512,512)"/>
    <line x1="512" y1="58" x2="512" y2="72" transform="rotate(262.5,512,512)"/>
    <line x1="512" y1="58" x2="512" y2="72" transform="rotate(270,512,512)"/>
    <line x1="512" y1="58" x2="512" y2="72" transform="rotate(277.5,512,512)"/>
    <line x1="512" y1="58" x2="512" y2="72" transform="rotate(285,512,512)"/>
    <line x1="512" y1="58" x2="512" y2="72" transform="rotate(292.5,512,512)"/>
    <line x1="512" y1="58" x2="512" y2="72" transform="rotate(300,512,512)"/>
    <line x1="512" y1="58" x2="512" y2="72" transform="rotate(307.5,512,512)"/>
    <line x1="512" y1="58" x2="512" y2="72" transform="rotate(315,512,512)"/>
    <line x1="512" y1="58" x2="512" y2="72" transform="rotate(322.5,512,512)"/>
    <line x1="512" y1="58" x2="512" y2="72" transform="rotate(330,512,512)"/>
    <line x1="512" y1="58" x2="512" y2="72" transform="rotate(337.5,512,512)"/>
    <line x1="512" y1="58" x2="512" y2="72" transform="rotate(345,512,512)"/>
    <line x1="512" y1="58" x2="512" y2="72" transform="rotate(352.5,512,512)"/>
  </g>

  <!-- Larger accent ticks at cardinal and intercardinal points -->
  <g stroke="#c9a84c" stroke-width="2.5">
    <line x1="512" y1="56" x2="512" y2="78" transform="rotate(0,512,512)"/>
    <line x1="512" y1="56" x2="512" y2="78" transform="rotate(45,512,512)"/>
    <line x1="512" y1="56" x2="512" y2="78" transform="rotate(90,512,512)"/>
    <line x1="512" y1="56" x2="512" y2="78" transform="rotate(135,512,512)"/>
    <line x1="512" y1="56" x2="512" y2="78" transform="rotate(180,512,512)"/>
    <line x1="512" y1="56" x2="512" y2="78" transform="rotate(225,512,512)"/>
    <line x1="512" y1="56" x2="512" y2="78" transform="rotate(270,512,512)"/>
    <line x1="512" y1="56" x2="512" y2="78" transform="rotate(315,512,512)"/>
  </g>

  <!-- Gold outer ring hairline -->
  <circle cx="512" cy="512" r="452" fill="none" stroke="url(#goldLine)" stroke-width="1.5" opacity="0.7"/>

  <!-- ── Mid band – slightly lighter green ── -->
  <circle cx="512" cy="512" r="438" fill="#1d5233"/>

  <!-- Gold accent ring -->
  <circle cx="512" cy="512" r="435" fill="none" stroke="#c9a84c" stroke-width="2"/>
  <circle cx="512" cy="512" r="430" fill="none" stroke="#c9a84c" stroke-width="0.8" opacity="0.5"/>

  <!-- ── Newsprint inner field ── -->
  <circle cx="512" cy="512" r="422" fill="url(#innerpaper)"/>

  <!-- Fine inner border rings -->
  <circle cx="512" cy="512" r="418" fill="none" stroke="#1a472a" stroke-width="3.5"/>
  <circle cx="512" cy="512" r="412" fill="none" stroke="#1a472a" stroke-width="1"/>
  <circle cx="512" cy="512" r="408" fill="none" stroke="#c9a84c" stroke-width="1.2" opacity="0.45"/>

  <!-- ── Decorative corner ornament clusters (4 positions) ── -->
  <!-- Top -->
  <g transform="translate(512,118)" fill="#1a472a" opacity="0.55">
    <polygon points="0,-9 2.8,0 -2.8,0" />
    <polygon points="-14,-4 -11.2,4.5 -16.8,4.5" />
    <polygon points="14,-4 11.2,4.5 16.8,4.5" />
    <rect x="-18" y="6" width="36" height="1.2" rx="0.6"/>
  </g>
  <!-- Bottom -->
  <g transform="translate(512,906) rotate(180)" fill="#1a472a" opacity="0.55">
    <polygon points="0,-9 2.8,0 -2.8,0" />
    <polygon points="-14,-4 -11.2,4.5 -16.8,4.5" />
    <polygon points="14,-4 11.2,4.5 16.8,4.5" />
    <rect x="-18" y="6" width="36" height="1.2" rx="0.6"/>
  </g>
  <!-- Left -->
  <g transform="translate(118,512) rotate(-90)" fill="#1a472a" opacity="0.55">
    <polygon points="0,-9 2.8,0 -2.8,0" />
    <polygon points="-14,-4 -11.2,4.5 -16.8,4.5" />
    <polygon points="14,-4 11.2,4.5 16.8,4.5" />
    <rect x="-18" y="6" width="36" height="1.2" rx="0.6"/>
  </g>
  <!-- Right -->
  <g transform="translate(906,512) rotate(90)" fill="#1a472a" opacity="0.55">
    <polygon points="0,-9 2.8,0 -2.8,0" />
    <polygon points="-14,-4 -11.2,4.5 -16.8,4.5" />
    <polygon points="14,-4 11.2,4.5 16.8,4.5" />
    <rect x="-18" y="6" width="36" height="1.2" rx="0.6"/>
  </g>

  <!-- ── Blackletter G ── -->
  <text
    x="512"
    y="646"
    font-family="UnifrakturMaguntia, 'Palatino Linotype', serif"
    font-size="524"
    fill="#1a472a"
    text-anchor="middle"
    dominant-baseline="auto"
    filter="url(#letterShadow)"
    letter-spacing="-4">G</text>

  <!-- ── Stream waves – primary ── -->
  <path d="M276 750 Q390 778 512 762 Q634 746 748 770" fill="none" stroke="#1a472a" stroke-width="5" stroke-linecap="round"/>

  <!-- Gold highlight on primary wave -->
  <path d="M276 750 Q390 778 512 762 Q634 746 748 770" fill="none" stroke="url(#waveGold)" stroke-width="2.5" stroke-linecap="round" opacity="0.65"/>

  <!-- Stream wave 2 – faded -->
  <path d="M302 774 Q406 798 512 784 Q618 770 722 794" fill="none" stroke="#1a472a" stroke-width="3" stroke-linecap="round" opacity="0.4"/>

  <!-- Stream wave 3 – faintest -->
  <path d="M326 795 Q420 815 512 803 Q604 791 698 811" fill="none" stroke="#1a472a" stroke-width="1.8" stroke-linecap="round" opacity="0.2"/>

  <!-- ── Horizontal rule lines flanking waves ── -->
  <line x1="200" y1="736" x2="812" y2="736" stroke="#1a472a" stroke-width="1" opacity="0.2"/>
  <line x1="240" y1="820" x2="784" y2="820" stroke="#1a472a" stroke-width="0.8" opacity="0.15"/>

  <!-- ── Small dot accents beside wave endpoints ── -->
  <circle cx="268" cy="750" r="3.5" fill="#1a472a" opacity="0.4"/>
  <circle cx="756" cy="770" r="3.5" fill="#1a472a" opacity="0.4"/>
  <circle cx="294" cy="774" r="2.5" fill="#1a472a" opacity="0.25"/>
  <circle cx="730" cy="794" r="2.5" fill="#1a472a" opacity="0.25"/>

  <!-- ── Subtle paper texture overlay (crosshatch) ── -->
  <g clip-path="url(#innerClip)" opacity="0.028" stroke="#5a4020" stroke-width="0.7">
    <line x1="100" y1="100" x2="924" y2="924"/>
    <line x1="150" y1="100" x2="924" y2="874"/>
    <line x1="200" y1="100" x2="924" y2="824"/>
    <line x1="250" y1="100" x2="924" y2="774"/>
    <line x1="300" y1="100" x2="924" y2="724"/>
    <line x1="350" y1="100" x2="924" y2="674"/>
    <line x1="400" y1="100" x2="924" y2="624"/>
    <line x1="450" y1="100" x2="924" y2="574"/>
    <line x1="500" y1="100" x2="924" y2="524"/>
    <line x1="550" y1="100" x2="924" y2="474"/>
    <line x1="600" y1="100" x2="924" y2="424"/>
    <line x1="650" y1="100" x2="924" y2="374"/>
    <line x1="700" y1="100" x2="924" y2="324"/>
    <line x1="750" y1="100" x2="924" y2="274"/>
    <line x1="800" y1="100" x2="924" y2="224"/>
    <line x1="850" y1="100" x2="924" y2="174"/>
    <line x1="100" y1="150" x2="874" y2="924"/>
    <line x1="100" y1="200" x2="824" y2="924"/>
    <line x1="100" y1="250" x2="774" y2="924"/>
    <line x1="100" y1="300" x2="724" y2="924"/>
    <line x1="100" y1="350" x2="674" y2="924"/>
    <line x1="100" y1="400" x2="624" y2="924"/>
    <line x1="100" y1="450" x2="574" y2="924"/>
    <line x1="100" y1="500" x2="524" y2="924"/>
    <line x1="100" y1="550" x2="474" y2="924"/>
    <line x1="100" y1="600" x2="424" y2="924"/>
    <line x1="100" y1="650" x2="374" y2="924"/>
    <line x1="100" y1="700" x2="324" y2="924"/>
    <line x1="100" y1="750" x2="274" y2="924"/>
    <line x1="100" y1="800" x2="224" y2="924"/>
    <line x1="100" y1="850" x2="174" y2="924"/>
  </g>
</svg>
